<svg width="512" height="512" viewBox="0 0 512 512" fill="none" xmlns="http://www.w3.org/2000/svg">
  <!-- Background Circle -->
  <circle cx="256" cy="256" r="240" fill="#3B82F6"/>
  
  <!-- Medical Cross with Operations Symbol -->
  <g transform="translate(256, 256)">
    <!-- Vertical bar of cross -->
    <rect x="-30" y="-120" width="60" height="240" rx="10" fill="white"/>
    <!-- Horizontal bar of cross -->
    <rect x="-120" y="-30" width="240" height="60" rx="10" fill="white"/>
    
    <!-- Operations gear symbol in center -->
    <circle cx="0" cy="0" r="50" fill="#3B82F6"/>
    <circle cx="0" cy="0" r="35" fill="white"/>
    
    <!-- Gear teeth -->
    <rect x="-8" y="-55" width="16" height="20" rx="3" fill="#3B82F6"/>
    <rect x="-8" y="35" width="16" height="20" rx="3" fill="#3B82F6"/>
    <rect x="-55" y="-8" width="20" height="16" rx="3" fill="#3B82F6"/>
    <rect x="35" y="-8" width="20" height="16" rx="3" fill="#3B82F6"/>
    
    <!-- Diagonal gear teeth -->
    <rect x="-42" y="-42" width="16" height="16" rx="3" fill="#3B82F6" transform="rotate(-45 -42 -42)"/>
    <rect x="42" y="-42" width="16" height="16" rx="3" fill="#3B82F6" transform="rotate(45 42 -42)"/>
    <rect x="-42" y="42" width="16" height="16" rx="3" fill="#3B82F6" transform="rotate(45 -42 42)"/>
    <rect x="42" y="42" width="16" height="16" rx="3" fill="#3B82F6" transform="rotate(-45 42 42)"/>
  </g>
  
  <!-- Text "CO" in the center circle -->
  <text x="256" y="276" font-family="Arial, sans-serif" font-size="48" font-weight="bold" fill="#3B82F6" text-anchor="middle">CO</text>
</svg>
